<svg width="14" height="28" viewBox="0 0 14 28" fill="none" xmlns="http://www.w3.org/2000/svg">
<path opacity="0.3" d="M8.33203 12.7597L10.9987 11.1597V3.33301H8.33203V12.7597Z" fill="#00E0B3"/>
<path opacity="0.3" d="M3 3.33301V11.1597L5.66667 12.7597V3.33301H3Z" fill="#00E0B3"/>
<path d="M13.6654 11.9065V0.666504H0.332031V11.9065C0.332031 12.3732 0.572031 12.8132 0.985364 13.0532L6.5587 16.3998L5.2387 19.5198L0.692031 19.9065L4.14536 22.8932L3.09203 27.3332L6.9987 24.9732L10.9054 27.3332L9.86536 22.8932L13.3187 19.9065L8.77203 19.5198L7.45203 16.3998L13.0254 13.0532C13.4254 12.8132 13.6654 12.3865 13.6654 11.9065ZM5.66536 12.7598L2.9987 11.1598V3.33317H5.66536V12.7598ZM10.9987 11.1598L8.33203 12.7598V3.33317H10.9987V11.1598Z" fill="#00E0B3"/>
</svg>
