<svg width="24" height="24" viewBox="0 0 24 24" fill="none" xmlns="http://www.w3.org/2000/svg">
<path opacity="0.3" d="M9 10C10.1046 10 11 9.10457 11 8C11 6.89543 10.1046 6 9 6C7.89543 6 7 6.89543 7 8C7 9.10457 7.89543 10 9 10Z" fill="white"/>
<path opacity="0.3" d="M9 15C6.3 15 3.2 16.29 3 17.01V18H15V17C14.8 16.29 11.7 15 9 15Z" fill="white"/>
<path d="M16.6719 13.1309C18.0419 14.0609 19.0019 15.3209 19.0019 17.0009V20.0009H23.0019V17.0009C23.0019 14.8209 19.4319 13.5309 16.6719 13.1309Z" fill="white"/>
<path d="M15.0019 12C17.2119 12 19.0019 10.21 19.0019 8C19.0019 5.79 17.2119 4 15.0019 4C14.5319 4 14.0919 4.1 13.6719 4.24C14.5019 5.27 15.0019 6.58 15.0019 8C15.0019 9.42 14.5019 10.73 13.6719 11.76C14.0919 11.9 14.5319 12 15.0019 12Z" fill="white"/>
<path d="M9 12C11.21 12 13 10.21 13 8C13 5.79 11.21 4 9 4C6.79 4 5 5.79 5 8C5 10.21 6.79 12 9 12ZM9 6C10.1 6 11 6.9 11 8C11 9.1 10.1 10 9 10C7.9 10 7 9.1 7 8C7 6.9 7.9 6 9 6Z" fill="white"/>
<path d="M9 13C6.33 13 1 14.34 1 17V20H17V17C17 14.34 11.67 13 9 13ZM15 18H3V17.01C3.2 16.29 6.3 15 9 15C11.7 15 14.8 16.29 15 17V18Z" fill="white"/>
</svg>
