<svg width="32" height="32" viewBox="0 0 32 32" fill="none" xmlns="http://www.w3.org/2000/svg">
<circle cx="16" cy="16" r="16" fill="#00E0B3"/>
<g clip-path="url(#clip0_908_67650)">
<path d="M16.0109 15.9298L7.30469 10.9033V15.9298L11.6578 18.4431L11.6579 18.443V19.6981L11.6578 19.6982V23.4696L16.0109 25.9829L20.364 23.4696V19.6982L20.3636 19.698V18.4429L20.364 18.4431L24.7171 15.9298V10.9033L16.0109 15.9298ZM19.8296 17.1147H18.0968L20.9848 15.3819L19.8296 17.1147Z" fill="#007A61"/>
<path d="M23.6663 10.3523L20.6961 8.64164L21.553 9.94145L18.6581 10.3034L16.0092 5.93542L16.009 5.93568L16.0088 5.93542L13.3598 10.3034L10.465 9.94145L11.3218 8.64164L8.35156 10.3523L16.0088 14.6713L16.009 14.6712L16.0092 14.6713L23.6663 10.3523Z" fill="#007A61"/>
</g>
<defs>
<clipPath id="clip0_908_67650">
<rect width="21.9355" height="20.0774" fill="white" transform="translate(5.05859 5.93542)"/>
</clipPath>
</defs>
</svg>
